<svg id="Layer_1" data-name="Layer 1" xmlns="http://www.w3.org/2000/svg" width="1190.76" height="630.62" viewBox="0 0 1190.76 630.62"><path fill="#1B1B1B" d="M226.38,83.12q-10.75-10-27.65-10-17.41,0-28.16,10T159.82,109a34.7,34.7,0,0,0,10.75,25.86q10.76,10.5,28.16,10.49,16.89,0,27.65-10.49A34.7,34.7,0,0,0,237.13,109Q237.13,93.12,226.38,83.12Z"/><path d="M167.5,474q0,16.89-7.17,23.81t-24.58,6.91H88.19l42-38.13-32-35.52L7.88,513.22a23.74,23.74,0,0,0,0,35.33l90.27,82.07,32-35.52L88.14,557H145q26.11,0,44.8-8.19a60.29,60.29,0,0,0,28.93-26.37q10.23-18.18,10.24-47.87V186.28H167.5Z"/><path d="M454.22,197q-28.17-16.9-66.05-16.9-38.91,0-68.35,17.41a119.07,119.07,0,0,0-45.57,48.13q-16.12,30.72-16.13,71.68,0,39.42,16.39,69.63a116.9,116.9,0,0,0,45.56,46.85q29.19,16.62,67.59,16.64,30.19,0,54.27-11a115.69,115.69,0,0,0,40.45-30.21A117.79,117.79,0,0,0,505.93,366H443.47a54.88,54.88,0,0,1-20.74,24.57q-14.09,9.23-35.58,9.22a69.23,69.23,0,0,1-35.08-9q-15.61-9-24.57-26.37-7.61-14.74-8.75-34.3H512.07a84.67,84.67,0,0,0,1-12.8V306.09q0-35.32-15.36-63.74A116.77,116.77,0,0,0,454.22,197ZM319.71,290.73a77.24,77.24,0,0,1,8-25.85Q337,247.72,352.84,239a71.25,71.25,0,0,1,34.82-8.7q26.61,0,44.54,16.12t18.95,44.29Z"/><path d="M735.3,193.2q-22-13.06-53.24-13.06-30.22,0-52.23,13.31A89.87,89.87,0,0,0,596,229.29l-4.61-43H537.16v258H598.6V306.6q0-23.53,8.45-40.19t23-25.34a63.23,63.23,0,0,1,33-8.71q28.15,0,42.5,17.41t14.33,49.67V444.33h61.44V293.8q0-37.37-12-62.46T735.3,193.2Z"/><path d="M1014.85,75.69V222.12a86.79,86.79,0,0,0-34.56-31q-21.76-11-50.95-11-35.83,0-64.25,17.66a121.85,121.85,0,0,0-44.29,48.13q-15.87,30.46-15.87,69.38t15.61,69.63q15.62,30.72,43.78,48.13t64,17.41q22,0,38.4-6.15a94.08,94.08,0,0,0,28.16-16.13,122.31,122.31,0,0,0,20-21.24l6.14,37.37h55.3V75.69Zm-8.7,282.11A70.25,70.25,0,0,1,980,386.73q-16.89,10.5-38.91,10.5a70.33,70.33,0,0,1-37.89-10.5,72,72,0,0,1-26.36-28.93q-9.5-18.42-9.48-42.49t9.48-42.5a70.25,70.25,0,0,1,26.36-28.67,71.73,71.73,0,0,1,37.89-10.24q22,0,38.91,10.24a68.59,68.59,0,0,1,26.12,28.67q9.21,18.44,9.21,42.5T1006.15,357.8Z"/></svg>